<svg width="100" height="125" viewBox="0 0 100 125" fill="none" xmlns="http://www.w3.org/2000/svg">
<circle cx="51" cy="22" r="12" fill="#43B1BF"/>
<circle cx="36" cy="70" r="20" fill="#43B1BF"/>
<path d="M48.81 71.03C48.27 71.03 47.83 70.59 47.83 70.05C47.83 63.86 42.8 58.83 36.61 58.83C36.07 58.83 35.63 58.39 35.63 57.85C35.63 57.31 36.07 56.87 36.61 56.87C43.87 56.87 49.78 62.78 49.78 70.04C49.78 70.6 49.34 71.03 48.81 71.03Z" fill="white"/>
<path d="M58.63 23.33C58.09 23.33 57.65 22.89 57.65 22.35C57.65 18.85 54.81 16.01 51.31 16.01C50.77 16.01 50.33 15.57 50.33 15.03C50.33 14.49 50.77 14.05 51.31 14.05C55.88 14.05 59.6 17.77 59.6 22.34C59.6 22.9 59.17 23.33 58.63 23.33Z" fill="white"/>
<circle cx="79" cy="51" r="10" fill="#43B1BF"/>
<path d="M84.92 51.88C84.38 51.88 83.94 51.44 83.94 50.9C83.94 48.3 81.82 46.18 79.22 46.18C78.68 46.18 78.24 45.74 78.24 45.2C78.24 44.66 78.68 44.22 79.22 44.22C82.9 44.22 85.89 47.21 85.89 50.89C85.89 51.44 85.45 51.88 84.92 51.88Z" fill="white"/>
<circle cx="20.5" cy="37.5" r="10.5" fill="#43B1BF"/>
<circle cx="68" cy="79" r="10" fill="#43B1BF"/>
<path d="M26.47 37.78C25.93 37.78 25.49 37.34 25.49 36.8C25.49 34.2 23.37 32.08 20.78 32.08C20.24 32.08 19.8 31.64 19.8 31.1C19.8 30.56 20.24 30.12 20.78 30.12C24.46 30.12 27.45 33.11 27.45 36.79C27.44 37.34 27 37.78 26.47 37.78Z" fill="white"/>
<circle cx="55" cy="45" r="8" fill="#43B1BF"/>
</svg>
