<svg width="81" height="90" viewBox="0 0 81 90" fill="none" xmlns="http://www.w3.org/2000/svg">
<path d="M36.828 56.68H35.4061V44.36C35.4061 42.7506 34.3475 41.3991 32.8944 40.9186V37.6881C32.8944 37.1373 32.4452 36.6881 31.8944 36.6881H31.1561V36.0084C31.1561 34.5396 29.9569 33.3365 28.4842 33.3365C27.0154 33.3365 25.8123 34.5357 25.8123 36.0084V36.6881H25.074C24.5233 36.6881 24.074 37.1373 24.074 37.6881V40.9186C22.6248 41.3991 21.5623 42.7467 21.5623 44.36V56.68H18.992V49.6995C18.992 49.4886 18.9217 49.2776 18.8006 49.1097L16.1522 45.4378V43.5276H16.8436C17.3944 43.5276 17.8436 43.0783 17.8436 42.5276C17.8436 38.8284 14.8319 35.8167 11.1327 35.8167H3.21084C2.66006 35.8167 2.21084 36.2659 2.21084 36.8167V39.7581C2.21084 40.3088 2.66006 40.7581 3.21084 40.7581H5.91004L5.99988 40.8284C5.53113 41.5784 5.01161 42.7776 5.17177 44.4378C5.22255 44.9573 5.65223 45.3479 6.16004 45.3479H6.26161C6.81239 45.2972 7.21082 44.8089 7.16004 44.2581C7.0702 43.2699 7.32021 42.5393 7.58193 42.0667L9.02332 43.1878V45.4378L6.37492 49.1097C6.25383 49.2816 6.18351 49.4887 6.18351 49.6996V56.6801H3.39441C1.97251 56.6801 0.816315 57.8403 0.816315 59.2582V60.6684C0.816315 62.0395 1.89441 63.1489 3.24601 63.227L6.10542 86.637C6.32417 88.4182 7.84371 89.7659 9.63661 89.7659H30.5776C32.3784 89.7659 33.8979 88.4143 34.1167 86.637L36.9761 63.227C38.3277 63.1489 39.4058 62.0356 39.4058 60.6684V59.2582C39.4058 57.8363 38.2459 56.68 36.828 56.68ZM26.09 38.692H30.8986V40.7232H26.09V38.692ZM27.8205 36.0123C27.8205 35.6412 28.1213 35.3404 28.4924 35.3404C28.8635 35.3404 29.1642 35.6412 29.1642 36.0123V36.692H27.8245V36.0123H27.8205ZM25.2189 42.7193H31.7697C32.6799 42.7193 33.4103 43.4576 33.4103 44.3599V48.6997H23.5822V44.3599C23.5822 43.4497 24.3205 42.7193 25.2228 42.7193H25.2189ZM23.5783 50.6998H33.4064V56.6803H23.5783V50.6998ZM20.0783 63.8718C20.6291 64.4226 21.4572 65.7234 21.508 67.0202V76.489C21.508 76.6374 21.2267 76.6374 21.2267 76.489V71.8992C21.2267 71.3484 20.7775 70.8992 20.2267 70.8992C19.676 70.8992 19.2267 71.3484 19.2267 71.8992V78.7586C19.2267 78.9305 19.0861 79.0672 18.9182 79.0672C18.7463 79.0672 18.6096 78.9266 18.6096 78.7586V71.8992C18.6096 71.3484 18.1603 70.8992 17.6096 70.8992C17.0588 70.8992 16.6096 71.3484 16.6096 71.8992V81.1375C16.6096 81.3094 16.469 81.4461 16.301 81.4461C16.1291 81.4461 15.9924 81.3055 15.9924 81.1375V71.8992C15.9924 71.3484 15.5432 70.8992 14.9924 70.8992C14.4416 70.8992 13.9924 71.3484 13.9924 71.8992V78.7586C13.9924 78.9305 13.8518 79.0672 13.6838 79.0672C13.5119 79.0672 13.3752 78.9266 13.3752 78.7586V69.1688C13.3752 68.6805 13.0237 68.2704 12.5471 68.1883C12.0666 68.1102 11.5979 68.3876 11.4377 68.8485C11.2072 69.5204 10.4572 70.8993 9.62909 70.8993H9.50018C9.50018 70.7196 9.57049 70.2509 10.0705 69.2782C10.2111 69.0087 10.3205 68.6766 10.4494 68.2665C11.0392 66.5048 11.7111 64.8954 13.5002 64.5673C13.9807 64.4775 14.3205 64.0673 14.3205 63.5868V58.6884H19.7893V63.1689C19.7893 63.4385 19.8909 63.6885 20.0784 63.8799L20.0783 63.8718ZM14.1603 44.7698H11.0314V43.5901H14.1603V44.7698ZM15.7384 41.5393H10.1603L7.2697 39.2776V37.8284H11.1486C13.3986 37.8284 15.2892 39.4182 15.7502 41.5393H15.7384ZM4.2184 37.8284H5.2692V38.7698H4.2184V37.8284ZM8.1911 50.0194L10.5427 46.7694H14.6521L17.0037 50.0194V56.6796H8.1951V50.0194H8.1911ZM2.82 60.6714V59.2612C2.82 58.9409 3.08172 58.6831 3.39813 58.6831H12.32V61.2534H3.39813C3.07782 61.2534 2.82 60.9917 2.82 60.6753V60.6714ZM32.14 86.3984C32.0384 87.1797 31.3783 87.7695 30.5892 87.7695H9.6482C8.85914 87.7695 8.199 87.1797 8.0974 86.3984L5.2693 63.2504H11.4412C9.66 64.352 8.9724 66.4106 8.5623 67.6293C8.46074 67.9184 8.36308 68.2309 8.30058 68.3598C7.76933 69.3989 7.12868 70.8989 7.78105 71.9809C8.03105 72.391 8.54277 72.8793 9.58965 72.9028C10.2498 72.9028 10.8905 72.6723 11.3905 72.3246V78.766C11.3905 80.0355 12.4296 81.0746 13.6991 81.0746C13.8084 81.0746 13.91 81.0551 14.0076 81.0434V81.1528C14.0076 82.4223 15.0467 83.4614 16.3162 83.4614C17.5857 83.4614 18.6248 82.4223 18.6248 81.1528V81.0434C18.7264 81.0551 18.8241 81.0746 18.9334 81.0746C20.2029 81.0746 21.242 80.0355 21.242 78.766V78.6176C21.242 78.6176 21.3319 78.6293 21.3827 78.6293C22.5624 78.6293 23.5233 77.6684 23.5233 76.4887V66.977C23.4725 65.477 22.7928 64.1372 22.1639 63.2465H34.9729L32.1447 86.3945L32.14 86.3984ZM37.4095 60.6714C37.4095 60.9917 37.1478 61.2495 36.8314 61.2495H21.8004V58.6792H36.8314C37.1517 58.6792 37.4095 58.9409 37.4095 59.2573V60.6714Z" fill="white"/>
<path d="M80.1185 77.488C79.7787 77.3864 71.7787 74.8396 70.3802 65.668C70.0912 63.7969 69.642 62.0391 69.6498 62.1172C69.2709 60.2578 68.181 58.6484 66.5912 57.6055C65.1928 56.6758 63.5404 56.2969 61.892 56.4766L61.5521 54.8164C61.4232 54.207 61.0639 53.6758 60.5404 53.3281C60.0209 52.9765 59.392 52.8594 58.7709 52.9883L57.9701 53.1484L47.7711 3.59742C47.3024 1.31622 45.0602 -0.164276 42.7828 0.308324C40.5016 0.777074 39.0211 3.01922 39.4937 5.29662L49.6847 54.8476L48.8957 55.0078C48.2746 55.1367 47.7551 55.4883 47.4074 56.0195C47.0675 56.539 46.9386 57.1679 47.0675 57.789L47.4074 59.4492C43.9269 60.5078 41.759 64.0703 42.4972 67.6992C42.4972 67.6992 43.048 70.3008 43.2159 71.168C43.3566 71.918 45.5948 85.348 51.1768 89.539C51.3487 89.6679 51.5557 89.7382 51.7784 89.7382H51.8096C52.2393 89.7265 62.3686 89.3984 67.2316 84.7694C67.4816 84.5311 67.591 84.1796 67.5207 83.8397L67.4113 83.2889L68.6613 85.1873C68.8801 85.5272 69.2902 85.6991 69.6808 85.617C70.8019 85.4061 80.6298 83.3865 80.8288 78.4764C80.8484 78.0155 80.5476 77.6053 80.1179 77.4764L80.1185 77.488ZM43.1885 2.269C43.337 2.23775 43.4893 2.21822 43.6378 2.21822C44.669 2.21822 45.5987 2.94869 45.8175 3.99942L56.0165 53.5504L51.6571 54.4489L41.4581 4.90986C41.2081 3.71066 41.9893 2.53096 43.1886 2.28096L43.1885 2.269ZM49.0791 57.128C49.0791 57.128 49.1807 57.0069 49.2979 56.9796C49.2979 56.9796 59.2198 54.9405 59.2393 54.9405C59.3291 54.9405 59.3994 54.9717 59.4307 54.9991C59.4698 55.0303 59.5518 55.1006 59.5791 55.2178L59.9073 56.8467L49.3483 59.0186L49.0201 57.3897C48.9889 57.2686 49.0397 57.171 49.0709 57.128L49.0791 57.128ZM48.4502 61.2491C48.4502 61.2491 62.3292 58.4288 62.6692 58.4288C65.0481 58.4288 67.1887 60.1007 67.6887 62.5186L68.2083 65.0303L44.9893 69.8115L44.4697 67.2998C43.8994 64.5303 45.6885 61.8193 48.458 61.249L48.4502 61.2491ZM75.2002 81.8081C72.8096 80.7183 71.5908 77.7886 71.5713 77.7573C71.3604 77.2456 70.7823 76.9956 70.2705 77.2065C69.7588 77.4175 69.5088 77.9956 69.7198 78.5073C69.7705 78.6362 70.7783 81.0659 72.8916 82.7182C71.8916 83.0581 70.8799 83.3276 69.9619 83.5268L66.2236 77.8471C65.9619 77.4487 65.4424 77.2885 65.0048 77.476C64.5634 77.6557 64.3134 78.1362 64.4033 78.6049L65.4424 83.683C64.6611 84.3432 63.7315 84.8822 62.7432 85.3549C58.9034 82.0463 57.4815 75.6244 57.462 75.5658C57.3409 75.0268 56.8135 74.6752 56.2706 74.7963C55.7315 74.9174 55.3917 75.4447 55.5011 75.9877C55.5596 76.269 56.8995 82.3275 60.6808 86.1677C59.0519 86.7068 57.3722 87.0779 55.9191 87.3083C54.4074 85.8474 53.0402 82.3669 52.6105 81.0778C52.4386 80.5583 51.8722 80.2692 51.3488 80.4372C50.8292 80.6091 50.5402 81.1755 50.7081 81.6989C50.8566 82.1481 51.9464 85.3591 53.5792 87.6208C52.9308 87.6794 52.419 87.7223 52.1104 87.7419C48.0909 84.3708 45.962 74.8199 45.3721 71.7929L68.6021 67.0117C70.2232 74.9414 76.3521 78.1597 78.6721 79.1017C78.2112 80.1329 76.8518 81.0626 75.2033 81.8205L75.2002 81.8081Z" fill="white"/>
</svg>
