<svg width="98" height="84" viewBox="0 0 98 84" fill="none" xmlns="http://www.w3.org/2000/svg">
<path d="M88.598 41.348L83.1566 38.7308L75.8793 25.6528C74.4418 23.0708 71.8207 21.5317 68.8676 21.5317L27.2036 21.5278C22.7778 21.5278 19.1763 25.1294 19.1763 29.5551V58.2031C19.1763 59.0586 19.8716 59.7539 20.7271 59.7539H25.7232C26.4497 63.5742 29.813 66.4727 33.8443 66.4727C37.8716 66.4727 41.2349 63.5743 41.9654 59.7539H69.1024C69.8289 63.5742 73.1922 66.4727 77.2235 66.4727C81.2508 66.4727 84.6141 63.5743 85.3446 59.7539H91.5985C92.454 59.7539 93.1493 59.0586 93.1493 58.2031V48.582C93.1454 45.4218 91.4457 42.7191 88.598 41.348ZM79.4066 38.3636H72.3714L69.7542 36.5589C69.4964 36.3792 69.1878 36.2855 68.8753 36.2855H62.4964V31.1253H75.3794L79.4066 38.3636ZM33.8446 63.3716C30.9969 63.3716 28.6766 61.0552 28.6766 58.2036C28.6766 55.3559 30.993 53.0356 33.8446 53.0356C36.6923 53.0356 39.0126 55.352 39.0126 58.2036C39.0126 61.0552 36.6962 63.3716 33.8446 63.3716ZM77.2196 63.3716C74.3719 63.3716 72.0516 61.0552 72.0516 58.2036C72.0516 55.3559 74.368 53.0356 77.2196 53.0356C80.0673 53.0356 82.3876 55.352 82.3876 58.2036C82.3876 61.0552 80.0712 63.3716 77.2196 63.3716ZM90.0476 56.6528H85.3406C84.614 52.8325 81.2508 49.934 77.2195 49.934C73.1922 49.934 69.8289 52.8324 69.0984 56.6528H41.9654C41.2388 52.8325 37.8756 49.934 33.8443 49.934C29.817 49.934 26.4537 52.8324 25.7232 56.6528H22.2779V29.5548C22.2779 26.84 24.4888 24.629 27.2037 24.629H68.8677C70.7075 24.629 72.2779 25.5509 73.1724 27.1602L73.6529 28.0235H60.9419C60.0864 28.0235 59.3911 28.7188 59.3911 29.5743V37.836C59.3911 38.6915 60.0864 39.3868 60.9419 39.3868H68.3911L71.0083 41.1915C71.2661 41.3712 71.5747 41.4649 71.8872 41.4649H81.688L87.2544 44.1407C89.0005 44.9806 90.0435 46.6407 90.0435 48.5782L90.0476 56.6528ZM53.0396 39.9148C53.0396 40.7703 52.3443 41.4656 51.4888 41.4656H25.7698C24.9143 41.4656 24.219 40.7703 24.219 39.9148C24.219 39.0593 24.9143 38.364 25.7698 38.364H51.4928C52.3444 38.364 53.0396 39.0593 53.0396 39.9148ZM16.0086 24.1688C16.0086 25.0243 15.3133 25.7196 14.4578 25.7196H4.40679C3.55132 25.7196 2.85599 25.0243 2.85599 24.1688C2.85599 23.3133 3.5513 22.618 4.40679 22.618H14.4618C15.3173 22.618 16.0086 23.3133 16.0086 24.1688ZM16.0086 37.7038C16.0086 38.5593 15.3133 39.2546 14.4578 39.2546H6.94999C6.09452 39.2546 5.39919 38.5593 5.39919 37.7038C5.39919 36.8483 6.0945 36.153 6.94999 36.153H14.4617C15.3172 36.1569 16.0086 36.8483 16.0086 37.7038ZM16.0086 51.2428C16.0086 52.0983 15.3133 52.7936 14.4578 52.7936H9.27029C8.41482 52.7936 7.71949 52.0983 7.71949 51.2428C7.71949 50.3873 8.4148 49.692 9.27029 49.692H14.4578C15.3172 49.692 16.0086 50.3873 16.0086 51.2428Z" fill="white"/>
</svg>
