<?xml version="1.0" encoding="UTF-8"?><svg id="Layer_1" xmlns="http://www.w3.org/2000/svg" viewBox="0 0 511.44 511.44"><defs><style>.cls-1{fill:#fff;}.cls-2{fill:#73be43;}.cls-3{fill:#edf7e6;}.cls-4{fill:#b0cf72;}.cls-5{fill:#a1d481;}.cls-6{fill:#74bf44;}.cls-7{fill:#9fcf72;}.cls-8{fill:#73bf44;}.cls-9{fill:#9ccf72;}.cls-10{fill:#dcefd0;}.cls-11{fill:#d0e9c0;}.cls-12{fill:#f4faf0;}.cls-13{fill:#73bf43;}</style></defs><rect class="cls-1" x="0" y="0" width="511.44" height="511.44"/><g><path class="cls-2" d="M511.44,.6V511.42H.97c-.8-1.16-.46-2.48-.46-3.73-.02-67.39-.02-134.79-.02-202.18,0-100.21,0-200.42,0-300.64,0-1.28-.1-2.56,.11-3.83,.11-.32,.33-.54,.65-.64,.88-.06,1.76-.03,2.64-.03,168.16,0,336.32,0,504.48,.01,1.02,0,2.07-.24,3.07,.22Z"/><path class="cls-1" d="M.49,511.42c-.15-.1-.5,.24-.48-.24,.02-.64,0-1.28,0-1.92V2.28C0,1.72,.03,1.16,0,.6-.05-.34,.67,.32,.97,.12c.16,.11,.21,.21,.16,.32-.05,.11-.1,.17-.15,.17h-.01c-.49,.97-.23,2.03-.23,3.05-.01,168.23-.01,336.46-.03,504.69,0,1.02,.24,2.07-.22,3.07Z"/><path class="cls-10" d="M.49,511.42c0-169.3,0-338.6,.02-507.9,0-.97-.5-2.07,.46-2.91,0,170.27,0,340.54,0,510.81H.49Z"/><path class="cls-11" d="M.98,.61V.12c169.43,0,338.87,0,508.3,.03,.7,0,1.63-.55,2.16,.45-169.2,0-338.39,0-507.59,0-.96,0-1.92,0-2.88,.01Z"/><path class="cls-1" d="M271.71,146.15c0-30.18,0-60.36,0-90.54,0-3.26-.35-2.91,2.97-2.91,14.14-.01,28.27-.09,42.41,.02,10.99,.08,20.53,4,28.6,11.5,6.27,5.83,10.81,12.72,13.08,21.02,1.08,3.94,1.59,7.97,1.6,12.03,.04,32.66,.05,65.31,0,97.97-.03,22.76-17.11,40.53-36.55,43.86-2.35,.4-4.73,.65-7.13,.65-14.14-.02-28.27,0-42.41,0-.08,0-.16,0-.24,0-2.49-.01-2.33,.2-2.33-2.32,0-30.42,0-60.84,0-91.26Z"/><path class="cls-1" d="M163.38,128.25c0-23.88,0-47.75,0-71.63,0-.48,0-.96,0-1.44,0-2.56-.08-2.33,2.33-2.33,7.67,0,15.34,0,23,0,1.95,0,1.97,.03,1.98,1.97,.02,4.07,0,8.15,0,12.22,0,43.28,0,86.56,0,129.84,0,6.93,3.15,11.97,9.31,14.91,11.3,5.39,23.36-3.16,23.33-14.44-.1-47.11-.05-94.23-.04-141.34,0-3.68-.45-3.15,3.17-3.16,7.91-.03,15.82,0,23.72,0,2.48,0,2.34-.13,2.34,2.34,0,26.51,0,53.02,0,79.54,0,21.08,.01,42.16,0,63.24,0,9.72-2.85,18.54-8.85,26.21-6.27,8.03-14.27,13.58-24.19,16.22-3.8,1.01-7.71,1.55-11.58,1.49-14.88-.21-26.99-6.19-36.02-18.1-5.83-7.69-8.56-16.4-8.54-26.07,.07-23.16,.02-46.32,.02-69.47Z"/><path class="cls-1" d="M96.55,50.4c9.49,.08,17.52,1.67,24.95,5.84,7.45,4.18,12.63,10.39,16.27,17.97,2.68,5.58,4.16,11.5,4.8,17.67,.11,1.11-.12,1.4-1.09,1.58-7.92,1.42-15.84,2.87-23.76,4.29-1.74,.31-1.82,.22-2.11-1.88-.58-4.22-1.68-8.27-3.77-12.01-2.13-3.82-4.92-6.98-9.46-7.8-4.75-.86-9.41-.83-13.32,2.67-2.58,2.31-4.18,5.26-5.06,8.52-2.44,9.05-1.14,17.67,3.34,25.87,4.2,7.67,10.06,13.91,16.74,19.45,4.91,4.07,9.9,8.06,14.43,12.54,7.16,7.09,13.61,14.75,18.27,23.8,3.12,6.06,5.54,12.32,6.79,19.04,.82,4.44,.62,8.87,.15,13.3-.85,8.04-3.4,15.5-7.71,22.39-6.15,9.83-15.19,15.28-26.33,17.42-7.58,1.46-15.21,1.34-22.78-.35-11.9-2.66-20.69-9.56-26.94-19.84-4.5-7.39-6.97-15.51-8.23-24.03-.27-1.81-.28-3.66-.68-5.43-.41-1.79-.03-2.31,2.07-2.45,3.1-.21,6.2-.38,9.3-.6,4.37-.3,8.73-.63,13.1-.94,1.91-.13,1.92-.13,2.24,1.79,.81,4.87,1.72,9.71,3.73,14.27,1.33,3.02,3.07,5.73,5.37,8.14,6.17,6.48,15.52,5.74,21.49,.82,4.81-3.96,7.21-9.12,7.32-15.44,.08-4.85-.36-9.51-2.45-13.97-2.12-4.53-4.91-8.59-8.45-12.07-5.46-5.36-11.02-10.63-16.63-15.84-4.44-4.13-8.86-8.28-13.07-12.64-5.11-5.28-9.9-10.84-13.64-17.2-4.44-7.54-6.75-15.71-7.36-24.47-.45-6.43,.08-12.72,1.65-18.9,2.89-11.32,9.21-20.21,19.39-26.17,4.46-2.61,9.35-4.04,14.44-4.77,2.68-.38,5.38-.7,7.03-.55Z"/><path class="cls-1" d="M431.24,81.15c-.96-.33-1.84-.18-2.71-.18-15.26-.01-30.51,0-45.77,0-.56,0-1.12-.04-1.68,0-1.13,.1-1.58-.35-1.55-1.5,.06-2.15,.02-4.31,.02-6.47,0-5.99,0-11.98,0-17.97,0-2.15,.02-2.18,2.01-2.18,26.04,0,52.08,0,78.11,0,1.95,0,1.98,.03,1.98,1.96,.01,8.3,0,16.61,.02,24.91,0,.98-.18,1.88-.54,2.79-6.23,15.62-12.45,31.24-18.67,46.86-10.67,26.8-21.34,53.59-32,80.39-.23,.58-.4,1.19-.65,1.97,.91,.34,1.77,.2,2.6,.2,15.34,.01,30.67,0,46.01,0,.56,0,1.13,.06,1.68-.01,1.32-.17,1.6,.49,1.59,1.67-.03,8.14,0,16.29-.02,24.43,0,1.65-.05,1.69-1.75,1.7-7.91,.02-15.81,0-23.72,0-17.81,0-35.62,0-53.43,0-.56,0-1.12-.05-1.68,0-1.12,.11-1.57-.3-1.54-1.48,.07-2.47,.02-4.95,.02-7.43,0-5.83,.02-11.66-.01-17.49,0-1.22,.19-2.36,.64-3.49,5.46-13.61,10.91-27.22,16.35-40.83,11.44-28.63,22.88-57.27,34.31-85.91,.23-.57,.64-1.13,.41-1.97Z"/><path class="cls-1" d="M181.56,279.49c.28,2.01,.37,3.94-.96,5.72-1.83,2.46-4.47,2.88-6.81,2.22-2.61-.74-4.15-2.97-4.18-5.75,0-.7,0-1.41,0-2.07-.96-.42-1.67,.04-2.41,.28-11.6,3.78-23.2,7.56-34.8,11.33-5.38,1.75-10.77,3.47-16.14,5.22-1.11,.36-2.22,.94-2.35-1.53-.51,1.52-.35,2.4-.37,3.27-.06,1.89-.04,1.89-2.04,1.92-.24,0-.48,0-.72,0-18.13,0-36.27,0-54.4,0-.4,0-.81-.05-1.2,0-1.32,.18-1.62-.49-1.58-1.67,.06-2.31,.06-4.63,0-6.95-.03-1.07,.35-1.79,1.2-2.43,1.91-1.43,3.79-2.92,5.66-4.41,.71-.57,1.45-.87,2.4-.87,5.91,.04,11.82,.02,17.73,.03,.21,0,.48-.08,.62,.26-.07,.62-.68,.76-1.1,1.06-1.05,.74-2,1.58-2.76,2.62-1.27,1.72-1.35,3.5-.2,5.34,1.13,1.8,2.71,2.57,4.84,2.3,1.94-.25,3.68-.97,5.34-1.94,3.95-2.33,7.34-5.36,10.54-8.59,.75-.76,1.44-1.07,2.47-1.07,8.39,.03,16.78,.03,25.16,0,1.12,0,1.8,.22,2.48,1.28,1.75,2.71,5.28,2.67,6.87-.11,.64-1.12,1.33-1.15,2.29-1.15,3.04,0,6.08-.1,9.11,.03,2.55,.11,4.87-.55,7.37-1.64-.57-.43-1.11-.29-1.57-.3-4.95-.01-9.91-.04-14.86,.02-1.14,.01-1.8-.26-2.43-1.34-1.36-2.35-4.94-2.58-6.43-.27-.98,1.53-2.07,1.62-3.55,1.61-8.15-.04-16.3-.03-24.45,0-1.17,0-2-.26-2.9-1.17-3.03-3.06-6.23-5.95-9.96-8.17-1.66-.99-3.4-1.7-5.34-1.98-2.07-.29-3.72,.43-4.88,2.18-1.19,1.8-1.26,3.56,.02,5.33,1,1.37,2.32,2.41,3.74,3.38-.32,.73-.95,.4-1.41,.4-5.43,.03-10.86,0-16.3,.03-1.08,0-2.02-.17-2.88-.87-1.92-1.56-3.86-3.09-5.84-4.57-.72-.54-1-1.14-.99-2.02,.04-2.48,.04-4.95,0-7.43-.02-.99,.28-1.52,1.35-1.42,.48,.04,.96,0,1.44,0,18.13,0,36.27,0,54.4,0,.48,0,.96,.03,1.44,0,.89-.06,1.3,.29,1.31,1.23,.02,1.1-.49,2.51,.27,3.22,.93,.87,2.44,.28,3.69,.32,1.83,.07,3.68-.03,5.51,.03,1.09,.03,1.62-.27,1.56-1.48-.04-1.01-.45-2.29,.25-3,.79-.8,2.13-.32,3.22-.32,39.86-.02,79.73-.02,119.59-.02,.48,0,.96,0,1.44,0,2.02,.03,2.18,.25,2.03,2.17-.07,.97-.58,1.09-1.39,1.21-5.04,.75-10.07,1.58-15.11,2.34-8.89,1.36-17.79,2.7-26.69,4.04-8.27,1.24-16.54,2.47-24.8,3.71-.56,.21-1.1,.25-1.59-.11,.02,.02-.09-.11-.09-.11,0,0,0,.04,.02,.06,.04,.2,.12,.37,.1,.57Z"/><path class="cls-1" d="M401.06,297.12c-17.63-5.76-35.26-11.53-52.89-17.29-.38-.12-.75-.29-1.14-.36-1.13-.21-1.52,.07-1.3,1.26,.33,1.79-.18,3.29-1.25,4.65-1.61,2.06-4.56,2.9-6.89,2.02-2.42-.91-4.08-3.35-4.05-5.95,0-.48,.1-.95,.15-1.43,.16-.35,0-.75,.16-1.1,.14-.1,.17-.22,.08-.35-.04,.13-.02,.29-.16,.38-.51,.4-1.06,.33-1.61,.11-8.26-1.26-16.53-2.52-24.79-3.76-8.9-1.34-17.8-2.63-26.69-3.97-4.96-.75-9.9-1.64-14.87-2.29-1.71-.22-1.2-1.29-1.29-2.22-.12-1.18,.64-1.27,1.52-1.23,.48,.02,.96,0,1.44,0,40.09,0,80.18,0,120.26,0,3.37,0,2.95-.37,2.99,2.87,.02,1.87,.04,1.89,1.8,1.91,2.56,.02,5.11-.03,7.67,.02,1.07,.02,1.63-.22,1.58-1.45-.04-1.01-.44-2.27,.24-3,.79-.84,2.12-.34,3.2-.34,17.73-.02,35.46-.02,53.18-.02,.48,0,.96,0,1.44,0,1.78,.04,1.8,.04,1.82,1.89,.02,2.24-.04,4.47,.02,6.71,.04,1.16-.38,1.9-1.34,2.58-1.88,1.34-3.68,2.79-5.47,4.26-.72,.59-1.45,.88-2.39,.88-5.91-.03-11.82-.02-17.73-.03-.13,0-.26-.1-.58-.23,1.09-.89,2.27-1.54,3.14-2.54,2.07-2.38,2.22-4.7,.4-6.89-1.17-1.4-2.67-1.9-4.47-1.65-2.35,.33-4.39,1.38-6.36,2.62-3.19,2.02-6.01,4.48-8.59,7.22-1,1.06-2.01,1.54-3.53,1.53-8.22-.08-16.45-.05-24.68-.03-1.23,0-2.25,.05-2.85-1.46-.87-2.23-5.75-2.22-6.68,.03-.54,1.3-1.4,1.45-2.61,1.44-5.35-.05-10.7-.02-16.1,.17,1.77,.87,3.53,1.74,5.6,1.73,3.59-.02,7.19,.02,10.78-.02,1.03,0,1.68,.23,2.31,1.2,1.79,2.78,4.92,2.74,6.83-.05,.57-.83,1.1-1.16,2.09-1.16,8.54,.03,17.09,.04,25.63,0,1.07,0,1.8,.38,2.49,1.12,2.46,2.63,5.13,5.03,8.1,7.06,2.3,1.57,4.65,3.07,7.53,3.43,2.11,.26,3.71-.39,4.89-2.18,1.21-1.83,1.06-3.57-.09-5.36-1.02-1.58-2.62-2.51-4.04-3.66,.43-.67,1.04-.36,1.53-.36,5.51-.02,11.02,.01,16.53-.04,1.18-.01,2.15,.24,3.07,1.01,1.71,1.43,3.47,2.81,5.26,4.14,.91,.68,1.34,1.44,1.3,2.61-.08,2.39-.06,4.79-.01,7.18,.02,1.03-.35,1.47-1.39,1.38-.48-.04-.96,0-1.44,0-18.13,0-36.25,0-54.38,0-.32,0-.64,0-.96,0q-1.67-.05-1.77-1.7c-.02-.4-.06-.79-.09-1.19-.4-.45-.09-1.06-.34-1.76,.08,.72,.37,1.27-.25,1.65Z"/><path class="cls-1" d="M207.15,430.54c.37,16.94-15.25,31.51-32.82,30.69-12.31-.58-29.68-10.72-29.66-31.19,.01-16.64,14.58-30.88,31.66-30.76,17.17,.12,31.29,15.06,30.82,31.26Z"/><path class="cls-1" d="M229.05,318.38c1.04,.24,1.44,.87,1.9,1.36,5.83,6.12,11.63,12.26,17.45,18.38,1.98,2.08,3.99,4.14,5.98,6.2,4.6,4.76,9.21,9.51,13.8,14.28,1.16,1.2,2.27,2.45,3.42,3.67,.21,.22,.43,.49,1.06,.25v-2.17c0-11.89,0-23.79,0-35.68,0-.64,.03-1.28,0-1.92-.05-.96,.44-1.24,1.31-1.23,2.08,.03,4.15,.03,6.23,0,.94-.01,1.29,.43,1.23,1.31-.02,.32,0,.64,0,.96,0,19.64,0,39.27,0,58.91,0,.39,0,.79,0,1.77-14.67-15.15-28.85-30.11-43.62-44.77,0,.68,0,1.36,0,2.05,0,12.13,0,24.27,0,36.4,0,.56-.03,1.12,0,1.68,.05,.88-.25,1.32-1.22,1.3-2.16-.04-4.31-.03-6.47,0-.84,0-1.13-.4-1.09-1.17,.02-.4,0-.8,0-1.2,0-19.4,0-38.8,0-58.19,0-.68,0-1.36,0-2.16Z"/><path class="cls-1" d="M313.43,381.1c-2.79,0-5.59,.02-8.38,0-1.65-.01-1.67-.05-1.7-1.75-.02-1.28,0-2.55,0-3.83,0-16.83,0-33.66,0-50.49,0-.56-.01-1.12,0-1.68,.05-1.78,.05-1.83,1.9-1.82,5.26,.03,10.53-.08,15.79,.19,11.04,.58,19.72,5.31,25.13,15.2,2.91,5.32,3.74,11.12,3.23,17.11-1.08,12.45-7.73,20.74-19.19,25.3-3.35,1.34-6.95,1.67-10.55,1.75-2.07,.05-4.15,0-6.22,0Z"/><path class="cls-1" d="M53.76,430.18c0-8.94,0-17.88,0-26.82,0-2.99-.3-2.78,2.88-2.79,1.44,0,2.87-.02,4.31,0,1.71,.04,1.75,.06,1.76,1.75,.03,3.83,0,7.66,0,11.49,0,2.87,.05,5.75-.02,8.62-.03,1.27,.45,1.64,1.68,1.63,7.5-.04,15.01,0,22.51-.03,1.81,0,1.85-.04,1.85-1.88,.02-6.23,0-12.45,0-18.68,0-.56,.02-1.12,0-1.68-.03-.76,.25-1.23,1.08-1.22,2.24,0,4.47,0,6.71,0,.77,0,1.19,.33,1.17,1.14-.01,.56,0,1.12,0,1.68,0,18.04,0,36.08,0,54.12,0,2.94,.3,2.63-2.74,2.65-1.36,0-2.71,.01-4.07,0-2.13-.02-2.14-.02-2.14-2.29,0-5.27,0-10.54,0-15.8,0-2.71,.02-5.43,0-8.14-.02-1.67-.05-1.71-1.76-1.71-7.42-.02-14.85-.02-22.27,0-1.94,0-1.97,.04-1.97,1.99-.01,7.66,0,15.32-.01,22.99,0,3.31,.41,2.94-2.9,2.97-1.6,.01-3.19-.03-4.79,0-.9,.02-1.3-.32-1.28-1.25,.04-1.68,0-3.35,0-5.03,0-7.9,0-15.8,0-23.71Z"/><path class="cls-1" d="M187.64,300.12c-20.12,0-40.25,0-60.37,0-2.94,0-2.59,.42-2.75-2.65-.08-1.58,.67-2.03,1.96-2.45,9.7-3.13,19.39-6.31,29.08-9.49,2.8-.92,5.54-2.09,8.59-1.7,.55,.07,1.11,.13,1.66,.14,1.88,.04,3,.84,3.95,2.62,1.98,3.75,7.42,4.53,10.49,1.49,1.42-1.41,2.76-1.57,4.48-1.31,9.04,1.41,18.09,2.8,27.14,4.18,12.59,1.92,25.18,3.82,37.77,5.75,.5,.08,1.27-.12,1.37,.64,.1,.78,.06,1.59-.04,2.38-.03,.29-.47,.38-.8,.39-.64,0-1.28,.01-1.92,.01-20.2,0-40.41,0-60.61,0Z"/><path class="cls-1" d="M327.71,300.12c-19.96,0-39.92,0-59.87,0-.48,0-.96,0-1.44,0-1.73-.03-2.4-1.09-1.83-2.77,.25-.73,.87-.61,1.37-.69,2.83-.46,5.66-.9,8.49-1.33,9.13-1.38,18.26-2.73,27.38-4.11,9.91-1.5,19.82-3,29.73-4.54,1.2-.19,2.1-.02,2.98,.94,3.86,4.2,10.31,2.1,11.82-2.22,.29-.82,.75-1.03,1.53-1.17,3.51-.64,6.88-.45,10.32,.73,10.17,3.48,20.41,6.75,30.63,10.08,1.89,.62,1.9,.6,1.91,2.61,0,.48-.02,.96,0,1.44,.02,.68-.27,1.04-.98,1.03-.64,0-1.28,0-1.92,0-20.04,0-40.08,0-60.11,0Z"/><path class="cls-1" d="M406.77,381.1c-3.6,0-6.63-.04-9.65,.02-1,.02-1.37-.59-1.83-1.25-3.55-5.1-7.11-10.2-10.68-15.29-1.6-2.28-3.22-4.55-4.82-6.84-.27-.39-.48-.82-.96-1.01-.77-.3-1.43,.06-1.51,.89-.05,.55-.02,1.12-.02,1.67,0,6.54,0,13.09,0,19.63,0,2.16-.02,2.17-2.24,2.18-1.76,0-3.51-.03-5.27,0-.91,.02-1.33-.32-1.27-1.25,.03-.48,0-.96,0-1.44,0-18.03,0-36.07,0-54.1,0-.24,0-.48,0-.72,.03-2.06,.03-2.09,2.13-2.08,5.1,.04,10.21-.26,15.28,.52,3.99,.62,7.7,1.78,10.75,4.7,4.59,4.4,5.8,9.79,4.73,15.76-1.14,6.34-5.02,10.51-11.06,12.69-.52,.19-1.03,.36-1.88,.66,6.07,8.37,12.02,16.58,18.3,25.24Z"/><path class="cls-1" d="M289.11,421.16c0-6.23-.01-12.46,0-18.68,0-1.84,.04-1.87,1.85-1.89,1.84-.03,3.68,.05,5.51-.02,1.28-.05,1.68,.49,1.61,1.7-.07,1.43-.02,2.87-.02,4.31,0,10.86,.05,21.72-.02,32.57-.04,5.41-1.58,10.39-5.25,14.49-4.24,4.74-9.53,7.3-15.96,7.5-5.84,.18-10.98-1.44-15.44-5.26-4.69-4.01-7.3-9.1-7.37-15.22-.15-12.69-.05-25.39-.04-38.08,0-1.96,.03-1.98,1.97-2,1.84-.02,3.67,.02,5.51,0,.89-.01,1.34,.32,1.29,1.25-.03,.64,0,1.28,0,1.92,0,11.5,0,22.99,0,34.49,0,1.85,.31,3.63,.74,5.42,1.2,5.06,4.44,8.06,9.42,9.02,5.18,1,9.82-.11,13.38-4.35,1.83-2.18,2.54-4.8,2.67-7.52,.18-3.98,.13-7.98,.16-11.97,.02-2.55,0-5.11,0-7.66Z"/><path class="cls-1" d="M92.79,381.1c9.81-21.06,19.48-41.82,29.37-63.05,9.51,21.16,18.84,41.91,28.34,63.04-3.16,0-5.98,0-8.81,0-.97,0-1.09-.82-1.36-1.44-1.57-3.57-3.12-7.16-4.65-10.75-.92-2.17-.91-2.18-3.29-2.18-7.11,0-14.22,.07-21.33-.05-1.83-.03-2.69,.65-3.36,2.23-1.46,3.45-3.13,6.81-4.6,10.25-.61,1.43-1.37,2.11-3.04,1.98-2.28-.17-4.59-.04-7.27-.04Z"/><path class="cls-1" d="M207,342.6c0,6.07,.03,12.14-.01,18.21-.04,5.02-1.56,9.54-4.79,13.44-3.22,3.88-7.28,6.35-12.18,7.49-8.97,2.1-18.07-1.56-23.07-8.5-2.75-3.82-4.01-8.12-4.03-12.78-.04-12.3-.02-24.6,0-36.89,0-2.03,.03-2.04,2.15-2.06,1.6-.01,3.2-.02,4.79,0,1.78,.03,1.8,.05,1.82,1.91,.02,3.03,0,6.07,0,9.1,0,8.46,.01,16.93,0,25.39,0,2.4,.3,4.76,.88,7.08,1.33,5.33,5.84,8.88,11.31,8.89,1.67,0,3.34,.16,5-.3,5.51-1.52,8.71-5.95,9.21-12.29,.46-5.82,.23-11.64,.29-17.46,.06-6.79,0-13.58,.02-20.36,0-1.94,.03-1.95,2-1.97,1.6-.02,3.2-.03,4.79,0,1.79,.03,1.82,.05,1.83,1.92,.02,6.39,0,12.78,0,19.17Z"/><path class="cls-1" d="M428.92,430.39c0-8.94,0-17.89,0-26.83,0-.56,.03-1.12,0-1.68-.04-.89,.3-1.35,1.24-1.3,.4,.02,.8,0,1.2,0,9.27,0,18.53,0,27.8,0,.48,0,.96,.02,1.44,.01,.67,0,1.05,.28,1.05,.98,0,2,0,3.99,.01,5.99,0,.79-.35,1.17-1.15,1.16-1.2-.01-2.4,0-3.59,0-5.67,0-11.34,0-17.02,0-2.18,0-2.2,.02-2.2,2.27-.01,3.51-.02,7.03,0,10.54,.01,1.67,.05,1.71,1.75,1.72,6.23,.02,12.46,0,18.69,0,.56,0,1.12,.02,1.68,0,.75-.02,1.22,.21,1.21,1.07-.02,2.08-.01,4.15,0,6.23,0,.81-.41,1.15-1.18,1.15-.8,0-1.6,.01-2.4,.01-5.91,0-11.82,0-17.73,0-1.98,0-2.01,.04-2.02,1.97-.02,5.35-.02,10.7,0,16.05,0,2.06,.03,2.08,2.17,2.09,6.55,.01,13.1,0,19.65,0,2.11,0,2.12,.03,2.14,2.07,.02,1.52,.02,3.04,0,4.55-.03,1.64-.05,1.67-1.77,1.68-3.12,.02-6.23,0-9.35,0-6.55,0-13.1,0-19.65,0-1.93,0-1.96-.03-1.96-1.98-.01-9.26,0-18.53,0-27.79Z"/><path class="cls-1" d="M380.52,409.18c-2.34,1.38-4.59,2.71-6.79,4.02-.89-.61-1.26-1.44-1.72-2.16-3.03-4.71-11.44-4.49-14.71-.45-2.33,2.88-2.15,6.78,.63,9.19,1.28,1.11,2.8,1.83,4.34,2.49,2.27,.97,4.56,1.89,6.84,2.84,3.04,1.27,5.77,2.99,8.25,5.19,6.76,5.98,5.78,18.61,.25,24.59-6.08,6.58-15.66,7.63-22.41,4.78-5.65-2.38-8.89-6.86-10.42-12.62-1.03-3.88-1.09-3.08,2.41-3.95,1.39-.35,2.79-.63,4.2-.93,1.45-.3,1.55-.24,1.82,1.3,.4,2.2,.85,4.36,2.36,6.16,2.5,2.97,7.2,4.2,11.16,2.85,3.87-1.32,6.37-4.77,6.62-8.8,.26-4.19-1.5-7.2-4.99-9.35-3.01-1.85-6.37-2.92-9.57-4.34-2.2-.98-4.29-2.11-6.21-3.56-7.68-5.8-7.86-16.47-.51-22.75,6.39-5.46,17.31-6.37,24.35,.16,.64,.59,1.21,1.27,1.77,1.94,.82,.97,1.63,1.96,2.35,3.4Z"/><path class="cls-1" d="M413.76,321.52c3.25,0,6.11,.02,8.97,0,1.23-.01,1.55,.96,2.01,1.76,2.86,4.98,5.69,9.97,8.56,14.94,1.34,2.33,2.53,4.76,4.2,7.08,1.37-1.44,2.09-3.12,2.99-4.67,3.36-5.79,6.69-11.6,9.96-17.44,.66-1.17,1.34-1.77,2.77-1.7,2.54,.13,5.09,.04,7.69,.04,.28,1.22-.53,1.93-.96,2.69-5.59,9.75-11.22,19.48-16.88,29.18-.76,1.29-1.09,2.58-1.08,4.07,.05,7.27,.03,14.53,.02,21.8,0,1.81-.04,1.82-1.84,1.85-1.52,.02-3.03,0-4.55,0-2.52-.01-2.37,.23-2.37-2.29,0-6.87-.04-13.73,.03-20.6,.02-1.82-.36-3.37-1.29-4.96-5.74-9.84-11.39-19.74-17.07-29.63-.31-.54-.6-1.1-1.15-2.1Z"/><path class="cls-1" d="M53.76,351.29c0-8.94,0-17.88,0-26.83,0-.56,.03-1.12,0-1.68-.05-.93,.39-1.28,1.29-1.28,2.16,.02,4.31,.02,6.47,0,.95,0,1.25,.49,1.21,1.35-.03,.64,0,1.28,0,1.92,0,15.17,0,30.34,0,45.51,0,2.99-.28,2.64,2.72,2.65,4.39,.02,8.78,0,13.18,.01,1.8,0,1.81,.04,1.83,1.88,.02,1.6-.06,3.2,.02,4.79,.06,1.19-.44,1.5-1.55,1.49-4.39-.04-8.78-.02-13.18-.02-3.27,0-6.55,0-9.82,0-2.15,0-2.17-.02-2.17-2.26,0-9.18,0-18.36,0-27.54Z"/><path class="cls-3" d="M399.73,268.27c-.63-.24-1.07-.64-.92-1.39,.12-.62,.57-.91,1.19-.85,.65,.06,1.02,.5,.97,1.09-.05,.67-.49,1.12-1.25,1.15Z"/><path class="cls-12" d="M115.43,268.23c-.65-.06-.95-.46-.92-1.09,.03-.63,.38-1.05,1.03-1.03,.65,.02,1,.45,.98,1.08-.02,.65-.48,.94-1.1,1.05Z"/><path class="cls-5" d="M334.09,278.53c.1,.56,.07,1.09-.39,1.51-.31-.63-1.17-.39-1.53-.95,.71,.07,1.34-.18,1.93-.55h0Z"/><path class="cls-7" d="M181.56,279.49c-.43-.22-.43-.58-.35-.98l-.03,.03c.59,.38,1.22,.64,1.94,.55-.42,.52-1,.44-1.57,.4Z"/><path class="cls-9" d="M401.06,297.12c.18-.48-.03-1.07,.42-1.55,.43,.53,.26,1.1,.18,1.65-.2-.03-.4-.07-.6-.1Z"/><path class="cls-13" d="M299.65,146.49c0-20.91,0-41.82,0-62.74,0-2.85-.25-2.62,2.53-2.62,4.63,0,9.26-.04,13.89,.01,3.83,.04,7.44,.87,10.51,3.33,4.17,3.33,6.43,7.66,6.46,13.02,.05,11.89,.02,23.79,.02,35.68,0,20.91,0,41.82,0,62.74,0,7.49-5.29,14.1-12.55,15.77-.77,.18-1.58,.26-2.37,.26-5.51,.02-11.02,.02-16.53,0-1.92,0-1.95-.03-1.95-2,0-11.25,0-22.51,0-33.76,0-9.9,0-19.79,0-29.69Z"/><path class="cls-6" d="M179.82,281.79c-.03,2.56-1.6,4-4.31,3.95-2.59-.04-4.06-1.61-3.99-4.25,.07-2.56,1.7-4.11,4.27-4.06,2.45,.05,4.06,1.79,4.02,4.35Z"/><path class="cls-4" d="M181.21,278.51c-.12-.05-.24-.1-.36-.15,.33-.35,.27,.03,.33,.18,0,0,.03-.03,.03-.03Z"/><path class="cls-6" d="M339.69,285.74c-2.61,0-4.26-1.61-4.23-4.12,.03-2.46,1.81-4.23,4.23-4.19,2.43,.04,4.39,1.92,4.37,4.17-.03,2.26-2.01,4.14-4.37,4.14Z"/><path class="cls-4" d="M334.09,278.53c.07-.11,.14-.22,.21-.34,.26,.33,0,.31-.22,.33,0,0,0,0,0,0Z"/><path class="cls-13" d="M175.88,452.98c-10.76,.19-22.33-8.36-22.37-22.86-.03-13.52,11.19-22.1,21.43-22.52,12.39-.51,23.46,9.05,23.4,22.66-.06,13.55-10.52,22.8-22.46,22.71Z"/><path class="cls-13" d="M312.12,351.37c0-6.55,0-13.09,0-19.64,0-1.87,.03-1.87,1.8-1.91,3.91-.09,7.81,.03,11.63,1,8.27,2.09,13.89,8.81,14.89,17.33,.55,4.66,.06,9.05-2.01,13.23-3.01,6.05-7.97,9.59-14.53,10.97-3.46,.73-6.98,.58-10.49,.62-1.12,.01-1.31-.53-1.31-1.48,.03-3.99,.01-7.98,.01-11.97,0-2.71,0-5.43,0-8.14Z"/><path class="cls-13" d="M377.31,339.33c0-2.63,.05-5.27-.02-7.9-.04-1.28,.45-1.64,1.67-1.62,2.79,.03,5.58-.04,8.27,.89,3.96,1.38,5.74,3.83,5.92,7.75,.27,5.89-2.5,8.23-5.63,9.51-2.96,1.2-6.09,1.09-9.21,1.03-.9-.02-1-.58-1-1.28,0-2.79,0-5.59,0-8.38Z"/><path class="cls-8" d="M112.46,358.41c3.25-7.08,6.31-13.76,9.45-20.63,1.09,1.46,1.48,2.94,2.1,4.29,2.16,4.78,4.21,9.61,6.29,14.42,.79,1.82,.76,1.9-1.12,1.91-5.41,.02-10.82,0-16.73,0Z"/></g></svg>